<svg width="1080" height="1080" viewBox="0 0 1080 1080" fill="none" xmlns="http://www.w3.org/2000/svg">
<path d="M185.977 765.273H197.754V840.918H235.781V850H185.977V765.273ZM267.598 851.289C263.027 851.289 259.297 850.508 256.406 848.945C253.555 847.344 251.445 845.254 250.078 842.676C248.75 840.059 248.086 837.266 248.086 834.297C248.086 831.172 248.691 828.555 249.902 826.445C251.152 824.297 253.477 822.363 256.875 820.645C260.312 818.887 265.332 817.051 271.934 815.137C275.371 814.121 278.125 813.223 280.195 812.441C282.266 811.66 283.77 810.664 284.707 809.453C285.645 808.242 286.113 806.504 286.113 804.238C286.113 802.559 285.84 801.035 285.293 799.668C284.785 798.301 283.711 797.207 282.07 796.387C280.469 795.566 278.008 795.156 274.688 795.156C270.547 795.156 267.52 795.586 265.605 796.445C263.691 797.305 262.461 798.438 261.914 799.844C261.406 801.211 261.152 802.734 261.152 804.414V807.168H250.547V804.355C250.547 798.223 252.598 793.75 256.699 790.938C260.801 788.125 266.914 786.719 275.039 786.719C283.242 786.719 288.965 788.633 292.207 792.461C295.488 796.289 297.129 801.406 297.129 807.812V834.297C297.129 837.578 297.539 839.688 298.359 840.625C299.219 841.562 300.977 842.031 303.633 842.031L302.344 850.469H300.117C295.977 850.469 292.988 849.668 291.152 848.066C289.316 846.426 287.93 844.141 286.992 841.211C286.094 842.617 284.844 844.102 283.242 845.664C281.68 847.227 279.629 848.555 277.09 849.648C274.59 850.742 271.426 851.289 267.598 851.289ZM268.945 843.086C271.172 843.086 273.496 842.617 275.918 841.68C278.34 840.703 280.488 839.434 282.363 837.871C284.277 836.27 285.527 834.512 286.113 832.598V816.25C285.254 817.109 283.75 818.242 281.602 819.648C279.492 821.016 276.465 822.266 272.52 823.398C267.715 824.766 264.18 826.172 261.914 827.617C259.688 829.062 258.574 831.172 258.574 833.945C258.574 837.07 259.375 839.375 260.977 840.859C262.617 842.344 265.273 843.086 268.945 843.086ZM320.156 829.023V761.816H331.172V829.141C331.172 832.5 331.484 835.059 332.109 836.816C332.734 838.535 333.867 839.707 335.508 840.332C337.148 840.918 339.512 841.211 342.598 841.211H344.531L343.242 850.469H340.078C335.547 850.469 331.797 849.941 328.828 848.887C325.898 847.832 323.711 845.762 322.266 842.676C320.859 839.59 320.156 835.039 320.156 829.023ZM377.051 851.289C372.48 851.289 368.75 850.508 365.859 848.945C363.008 847.344 360.898 845.254 359.531 842.676C358.203 840.059 357.539 837.266 357.539 834.297C357.539 831.172 358.145 828.555 359.355 826.445C360.605 824.297 362.93 822.363 366.328 820.645C369.766 818.887 374.785 817.051 381.387 815.137C384.824 814.121 387.578 813.223 389.648 812.441C391.719 811.66 393.223 810.664 394.16 809.453C395.098 808.242 395.566 806.504 395.566 804.238C395.566 802.559 395.293 801.035 394.746 799.668C394.238 798.301 393.164 797.207 391.523 796.387C389.922 795.566 387.461 795.156 384.141 795.156C380 795.156 376.973 795.586 375.059 796.445C373.145 797.305 371.914 798.438 371.367 799.844C370.859 801.211 370.605 802.734 370.605 804.414V807.168H360V804.355C360 798.223 362.051 793.75 366.152 790.938C370.254 788.125 376.367 786.719 384.492 786.719C392.695 786.719 398.418 788.633 401.66 792.461C404.941 796.289 406.582 801.406 406.582 807.812V834.297C406.582 837.578 406.992 839.688 407.812 840.625C408.672 841.562 410.43 842.031 413.086 842.031L411.797 850.469H409.57C405.43 850.469 402.441 849.668 400.605 848.066C398.77 846.426 397.383 844.141 396.445 841.211C395.547 842.617 394.297 844.102 392.695 845.664C391.133 847.227 389.082 848.555 386.543 849.648C384.043 850.742 380.879 851.289 377.051 851.289ZM378.398 843.086C380.625 843.086 382.949 842.617 385.371 841.68C387.793 840.703 389.941 839.434 391.816 837.871C393.73 836.27 394.98 834.512 395.566 832.598V816.25C394.707 817.109 393.203 818.242 391.055 819.648C388.945 821.016 385.918 822.266 381.973 823.398C377.168 824.766 373.633 826.172 371.367 827.617C369.141 829.062 368.027 831.172 368.027 833.945C368.027 837.07 368.828 839.375 370.43 840.859C372.07 842.344 374.727 843.086 378.398 843.086ZM429.375 787.891H440.391V793.926C442.227 791.816 444.629 790.098 447.598 788.77C450.566 787.402 454.297 786.719 458.789 786.719C463.906 786.719 468.008 787.559 471.094 789.238C474.219 790.879 476.484 793.086 477.891 795.859C479.297 798.594 480 801.602 480 804.883V850H468.984V804.238C468.984 801.152 467.773 798.867 465.352 797.383C462.93 795.898 459.805 795.156 455.977 795.156C450.586 795.156 446.641 796.172 444.141 798.203C441.641 800.234 440.391 802.754 440.391 805.762V850H429.375V787.891ZM533.086 850V765.273H566.719C574.57 765.273 580.84 766.543 585.527 769.082C590.215 771.582 593.594 774.98 595.664 779.277C597.773 783.574 598.828 788.418 598.828 793.809V821.758C598.828 830.938 596.172 837.949 590.859 842.793C585.586 847.598 577.578 850 566.836 850H533.086ZM544.922 841.211H565.664C569.727 841.211 573.359 840.781 576.562 839.922C579.805 839.023 582.363 837.266 584.238 834.648C586.113 832.031 587.051 828.125 587.051 822.93V793.105C587.051 787.871 586.094 783.906 584.18 781.211C582.305 778.477 579.746 776.621 576.504 775.645C573.301 774.629 569.688 774.121 565.664 774.121H544.922V841.211ZM621.562 787.891H632.578V850H621.562V787.891ZM621.387 761.816H632.754V774.004H621.387V761.816ZM677.988 873.906C673.809 873.906 670.215 873.73 667.207 873.379C664.199 873.027 661.543 872.422 659.238 871.562L661.699 863.301C663.379 863.926 665.703 864.453 668.672 864.883C671.641 865.312 674.57 865.527 677.461 865.527C682.812 865.527 686.66 864.395 689.004 862.129C691.387 859.863 692.578 856.426 692.578 851.816V843.203C691.406 844.297 689.824 845.176 687.832 845.84C685.879 846.465 683.887 846.934 681.855 847.246C679.824 847.52 678.086 847.656 676.641 847.656C668.711 847.656 662.793 845.957 658.887 842.559C655.02 839.16 653.086 834.238 653.086 827.793V807.344C653.086 801.094 654.98 796.094 658.77 792.344C662.598 788.594 668.555 786.719 676.641 786.719C678.75 786.719 680.918 787.031 683.145 787.656C685.41 788.281 687.402 789.062 689.121 790C690.84 790.938 691.992 791.895 692.578 792.871V787.891H703.594V848.535C703.594 853.379 702.793 857.715 701.191 861.543C699.629 865.371 696.973 868.379 693.223 870.566C689.512 872.793 684.434 873.906 677.988 873.906ZM678.34 839.219C682.441 839.219 685.625 838.613 687.891 837.402C690.156 836.191 691.719 835.234 692.578 834.531V803.711C692.578 801.016 691.406 798.926 689.062 797.441C686.758 795.918 683.164 795.156 678.281 795.156C673.945 795.156 670.488 796.035 667.91 797.793C665.371 799.551 664.102 802.344 664.102 806.172V829.492C664.102 833.203 665.469 835.762 668.203 837.168C670.938 838.535 674.316 839.219 678.34 839.219ZM725.742 787.891H736.758V850H725.742V787.891ZM725.566 761.816H736.934V774.004H725.566V761.816ZM763.652 832.246V796.211H753.281V787.891H764.062L765.41 768.672H774.668V787.891H790.254V796.211H774.668V831.543C774.668 835.645 775.879 838.281 778.301 839.453C780.723 840.625 784.551 841.211 789.785 841.211H791.016L789.844 850.469H788.203C779.727 850.469 773.516 849.141 769.57 846.484C765.625 843.828 763.652 839.082 763.652 832.246ZM824.59 851.289C820.02 851.289 816.289 850.508 813.398 848.945C810.547 847.344 808.438 845.254 807.07 842.676C805.742 840.059 805.078 837.266 805.078 834.297C805.078 831.172 805.684 828.555 806.895 826.445C808.145 824.297 810.469 822.363 813.867 820.645C817.305 818.887 822.324 817.051 828.926 815.137C832.363 814.121 835.117 813.223 837.188 812.441C839.258 811.66 840.762 810.664 841.699 809.453C842.637 808.242 843.105 806.504 843.105 804.238C843.105 802.559 842.832 801.035 842.285 799.668C841.777 798.301 840.703 797.207 839.062 796.387C837.461 795.566 835 795.156 831.68 795.156C827.539 795.156 824.512 795.586 822.598 796.445C820.684 797.305 819.453 798.438 818.906 799.844C818.398 801.211 818.145 802.734 818.145 804.414V807.168H807.539V804.355C807.539 798.223 809.59 793.75 813.691 790.938C817.793 788.125 823.906 786.719 832.031 786.719C840.234 786.719 845.957 788.633 849.199 792.461C852.48 796.289 854.121 801.406 854.121 807.812V834.297C854.121 837.578 854.531 839.688 855.352 840.625C856.211 841.562 857.969 842.031 860.625 842.031L859.336 850.469H857.109C852.969 850.469 849.98 849.668 848.145 848.066C846.309 846.426 844.922 844.141 843.984 841.211C843.086 842.617 841.836 844.102 840.234 845.664C838.672 847.227 836.621 848.555 834.082 849.648C831.582 850.742 828.418 851.289 824.59 851.289ZM825.938 843.086C828.164 843.086 830.488 842.617 832.91 841.68C835.332 840.703 837.48 839.434 839.355 837.871C841.27 836.27 842.52 834.512 843.105 832.598V816.25C842.246 817.109 840.742 818.242 838.594 819.648C836.484 821.016 833.457 822.266 829.512 823.398C824.707 824.766 821.172 826.172 818.906 827.617C816.68 829.062 815.566 831.172 815.566 833.945C815.566 837.07 816.367 839.375 817.969 840.859C819.609 842.344 822.266 843.086 825.938 843.086ZM877.148 829.023V761.816H888.164V829.141C888.164 832.5 888.477 835.059 889.102 836.816C889.727 838.535 890.859 839.707 892.5 840.332C894.141 840.918 896.504 841.211 899.59 841.211H901.523L900.234 850.469H897.07C892.539 850.469 888.789 849.941 885.82 848.887C882.891 847.832 880.703 845.762 879.258 842.676C877.852 839.59 877.148 835.039 877.148 829.023Z" fill="#1F8767"/>
<path d="M185.977 765.273V764.273H184.977V765.273H185.977ZM197.754 765.273H198.754V764.273H197.754V765.273ZM197.754 840.918H196.754V841.918H197.754V840.918ZM235.781 840.918H236.781V839.918H235.781V840.918ZM235.781 850V851H236.781V850H235.781ZM185.977 850H184.977V851H185.977V850ZM185.977 766.273H197.754V764.273H185.977V766.273ZM196.754 765.273V840.918H198.754V765.273H196.754ZM197.754 841.918H235.781V839.918H197.754V841.918ZM234.781 840.918V850H236.781V840.918H234.781ZM235.781 849H185.977V851H235.781V849ZM186.977 850V765.273H184.977V850H186.977ZM256.406 848.945L255.917 849.817L255.924 849.821L255.931 849.825L256.406 848.945ZM250.078 842.676L249.186 843.128L249.19 843.136L249.195 843.144L250.078 842.676ZM249.902 826.445L249.038 825.942L249.035 825.947L249.902 826.445ZM256.875 820.645L257.326 821.537L257.33 821.535L256.875 820.645ZM271.934 815.137L272.212 816.097L272.217 816.096L271.934 815.137ZM285.293 799.668L284.356 800.016L284.36 800.028L284.364 800.039L285.293 799.668ZM282.07 796.387L281.614 797.277L281.623 797.281L282.07 796.387ZM261.914 799.844L260.982 799.481L260.979 799.488L260.977 799.496L261.914 799.844ZM261.152 807.168V808.168H262.152V807.168H261.152ZM250.547 807.168H249.547V808.168H250.547V807.168ZM292.207 792.461L291.444 793.107L291.448 793.112L292.207 792.461ZM298.359 840.625L297.607 841.284L297.614 841.292L297.622 841.301L298.359 840.625ZM303.633 842.031L304.621 842.182L304.797 841.031H303.633V842.031ZM302.344 850.469V851.469H303.203L303.332 850.62L302.344 850.469ZM291.152 848.066L290.486 848.812L290.495 848.82L291.152 848.066ZM286.992 841.211L287.945 840.906L287.296 838.878L286.149 840.673L286.992 841.211ZM283.242 845.664L282.544 844.948L282.535 844.957L283.242 845.664ZM277.09 849.648L276.694 848.73L276.689 848.732L277.09 849.648ZM275.918 841.68L276.279 842.612L276.292 842.607L275.918 841.68ZM282.363 837.871L283.003 838.639L283.005 838.638L282.363 837.871ZM286.113 832.598L287.069 832.89L287.113 832.747V832.598H286.113ZM286.113 816.25H287.113V813.836L285.406 815.543L286.113 816.25ZM281.602 819.648L282.145 820.488L282.149 820.485L281.602 819.648ZM272.52 823.398L272.793 824.36L272.796 824.36L272.52 823.398ZM261.914 827.617L261.376 826.774L261.37 826.778L261.914 827.617ZM260.977 840.859L260.297 841.593L260.306 841.601L260.977 840.859ZM267.598 850.289C263.132 850.289 259.58 849.524 256.882 848.066L255.931 849.825C259.013 851.491 262.923 852.289 267.598 852.289V850.289ZM256.896 848.073C254.191 846.554 252.228 844.596 250.962 842.207L249.195 843.144C250.662 845.912 252.919 848.133 255.917 849.817L256.896 848.073ZM250.97 842.223C249.714 839.748 249.086 837.11 249.086 834.297H247.086C247.086 837.421 247.786 840.369 249.186 843.128L250.97 842.223ZM249.086 834.297C249.086 831.298 249.667 828.864 250.77 826.943L249.035 825.947C247.716 828.246 247.086 831.046 247.086 834.297H249.086ZM250.767 826.948C251.881 825.034 254.015 823.212 257.326 821.537L256.424 819.752C252.938 821.515 250.424 823.56 249.038 825.942L250.767 826.948ZM257.33 821.535C260.684 819.82 265.632 818.005 272.212 816.097L271.655 814.176C265.032 816.097 259.941 817.953 256.42 819.754L257.33 821.535ZM272.217 816.096C275.666 815.077 278.446 814.171 280.548 813.377L279.842 811.506C277.804 812.275 275.077 813.165 271.65 814.178L272.217 816.096ZM280.548 813.377C282.719 812.558 284.407 811.474 285.498 810.065L283.916 808.841C283.132 809.855 281.812 810.762 279.842 811.506L280.548 813.377ZM285.498 810.065C286.622 808.613 287.113 806.624 287.113 804.238H285.113C285.113 806.384 284.667 807.872 283.916 808.841L285.498 810.065ZM287.113 804.238C287.113 802.449 286.822 800.797 286.221 799.297L284.364 800.039C284.858 801.273 285.113 802.668 285.113 804.238H287.113ZM286.23 799.32C285.613 797.658 284.324 796.395 282.518 795.492L281.623 797.281C283.098 798.019 283.957 798.944 284.356 800.016L286.23 799.32ZM282.526 795.497C280.709 794.566 278.054 794.156 274.688 794.156V796.156C277.962 796.156 280.228 796.567 281.614 797.277L282.526 795.497ZM274.688 794.156C270.517 794.156 267.312 794.583 265.196 795.533L266.015 797.358C267.728 796.589 270.577 796.156 274.688 796.156V794.156ZM265.196 795.533C263.137 796.457 261.656 797.748 260.982 799.481L262.846 800.206C263.266 799.127 264.246 798.152 266.015 797.358L265.196 795.533ZM260.977 799.496C260.422 800.99 260.152 802.633 260.152 804.414H262.152C262.152 802.835 262.391 801.432 262.851 800.192L260.977 799.496ZM260.152 804.414V807.168H262.152V804.414H260.152ZM261.152 806.168H250.547V808.168H261.152V806.168ZM251.547 807.168V804.355H249.547V807.168H251.547ZM251.547 804.355C251.547 798.465 253.5 794.344 257.265 791.762L256.134 790.113C251.695 793.156 249.547 797.98 249.547 804.355H251.547ZM257.265 791.762C261.124 789.116 267 787.719 275.039 787.719V785.719C266.828 785.719 260.477 787.134 256.134 790.113L257.265 791.762ZM275.039 787.719C283.131 787.719 288.485 789.613 291.444 793.107L292.97 791.815C289.445 787.653 283.353 785.719 275.039 785.719V787.719ZM291.448 793.112C294.535 796.714 296.129 801.579 296.129 807.812H298.129C298.129 801.234 296.441 795.864 292.966 791.81L291.448 793.112ZM296.129 807.812V834.297H298.129V807.812H296.129ZM296.129 834.297C296.129 835.972 296.233 837.389 296.455 838.531C296.672 839.649 297.024 840.617 297.607 841.284L299.112 839.966C298.875 839.695 298.611 839.14 298.418 838.149C298.23 837.181 298.129 835.903 298.129 834.297H296.129ZM297.622 841.301C298.225 841.958 299.077 842.383 300.065 842.646C301.056 842.91 302.254 843.031 303.633 843.031V841.031C302.356 841.031 301.346 840.918 300.58 840.713C299.81 840.508 299.353 840.229 299.097 839.949L297.622 841.301ZM302.644 841.88L301.355 850.318L303.332 850.62L304.621 842.182L302.644 841.88ZM302.344 849.469H300.117V851.469H302.344V849.469ZM300.117 849.469C296.063 849.469 293.373 848.677 291.81 847.313L290.495 848.82C292.603 850.659 295.89 851.469 300.117 851.469V849.469ZM291.819 847.321C290.145 845.825 288.841 843.708 287.945 840.906L286.04 841.516C287.018 844.573 288.488 847.026 290.486 848.812L291.819 847.321ZM286.149 840.673C285.303 841.997 284.108 843.422 282.544 844.948L283.941 846.38C285.58 844.781 286.884 843.238 287.835 841.749L286.149 840.673ZM282.535 844.957C281.081 846.411 279.145 847.674 276.694 848.73L277.485 850.567C280.113 849.435 282.278 848.043 283.949 846.371L282.535 844.957ZM276.689 848.732C274.355 849.753 271.34 850.289 267.598 850.289V852.289C271.512 852.289 274.824 851.731 277.491 850.565L276.689 848.732ZM268.945 844.086C271.314 844.086 273.761 843.587 276.279 842.612L275.557 840.747C273.231 841.647 271.03 842.086 268.945 842.086V844.086ZM276.292 842.607C278.804 841.594 281.043 840.273 283.003 838.639L281.723 837.103C279.933 838.594 277.876 839.812 275.544 840.752L276.292 842.607ZM283.005 838.638C285.031 836.943 286.414 835.031 287.069 832.89L285.157 832.305C284.64 833.993 283.524 835.596 281.722 837.104L283.005 838.638ZM287.113 832.598V816.25H285.113V832.598H287.113ZM285.406 815.543C284.624 816.325 283.194 817.411 281.054 818.812L282.149 820.485C284.306 819.073 285.884 817.894 286.82 816.957L285.406 815.543ZM281.058 818.809C279.067 820.1 276.146 821.317 272.244 822.437L272.796 824.36C276.784 823.214 279.918 821.932 282.145 820.488L281.058 818.809ZM272.246 822.437C267.413 823.812 263.766 825.25 261.376 826.774L262.452 828.46C264.593 827.094 268.016 825.72 272.793 824.36L272.246 822.437ZM261.37 826.778C258.844 828.418 257.574 830.851 257.574 833.945H259.574C259.574 831.492 260.531 829.707 262.459 828.456L261.37 826.778ZM257.574 833.945C257.574 837.226 258.416 839.85 260.297 841.593L261.656 840.126C260.334 838.9 259.574 836.914 259.574 833.945H257.574ZM260.306 841.601C262.218 843.332 265.178 844.086 268.945 844.086V842.086C265.369 842.086 263.016 841.356 261.647 840.118L260.306 841.601ZM320.156 761.816V760.816H319.156V761.816H320.156ZM331.172 761.816H332.172V760.816H331.172V761.816ZM332.109 836.816L331.167 837.151L331.17 837.158L332.109 836.816ZM335.508 840.332L335.152 841.267L335.162 841.27L335.171 841.274L335.508 840.332ZM344.531 841.211L345.522 841.349L345.68 840.211H344.531V841.211ZM343.242 850.469V851.469H344.113L344.233 850.607L343.242 850.469ZM328.828 848.887L328.489 849.828L328.493 849.829L328.828 848.887ZM322.266 842.676L321.356 843.09L321.36 843.1L322.266 842.676ZM321.156 829.023V761.816H319.156V829.023H321.156ZM320.156 762.816H331.172V760.816H320.156V762.816ZM330.172 761.816V829.141H332.172V761.816H330.172ZM330.172 829.141C330.172 832.538 330.485 835.232 331.167 837.151L333.052 836.481C332.484 834.885 332.172 832.462 332.172 829.141H330.172ZM331.17 837.158C331.889 839.137 333.227 840.533 335.152 841.267L335.864 839.398C334.507 838.881 333.58 837.933 333.049 836.475L331.17 837.158ZM335.171 841.274C336.973 841.917 339.471 842.211 342.598 842.211V840.211C339.552 840.211 337.324 839.919 335.844 839.39L335.171 841.274ZM342.598 842.211H344.531V840.211H342.598V842.211ZM343.541 841.073L342.252 850.331L344.233 850.607L345.522 841.349L343.541 841.073ZM343.242 849.469H340.078V851.469H343.242V849.469ZM340.078 849.469C335.615 849.469 331.988 848.948 329.163 847.944L328.493 849.829C331.606 850.935 335.478 851.469 340.078 851.469V849.469ZM329.167 847.946C326.512 846.99 324.515 845.122 323.171 842.252L321.36 843.1C322.906 846.402 325.285 848.674 328.489 849.828L329.167 847.946ZM323.176 842.261C321.858 839.37 321.156 834.99 321.156 829.023H319.156C319.156 835.088 319.861 839.81 321.356 843.09L323.176 842.261ZM365.859 848.945L365.37 849.817L365.377 849.821L365.384 849.825L365.859 848.945ZM359.531 842.676L358.64 843.128L358.644 843.136L358.648 843.144L359.531 842.676ZM359.355 826.445L358.491 825.942L358.488 825.947L359.355 826.445ZM366.328 820.645L366.779 821.537L366.783 821.535L366.328 820.645ZM381.387 815.137L381.665 816.097L381.67 816.096L381.387 815.137ZM394.746 799.668L393.809 800.016L393.813 800.028L393.818 800.039L394.746 799.668ZM391.523 796.387L391.068 797.277L391.076 797.281L391.523 796.387ZM371.367 799.844L370.435 799.481L370.432 799.488L370.43 799.496L371.367 799.844ZM370.605 807.168V808.168H371.605V807.168H370.605ZM360 807.168H359V808.168H360V807.168ZM401.66 792.461L400.897 793.107L400.901 793.112L401.66 792.461ZM407.812 840.625L407.06 841.284L407.068 841.292L407.075 841.301L407.812 840.625ZM413.086 842.031L414.074 842.182L414.25 841.031H413.086V842.031ZM411.797 850.469V851.469H412.656L412.785 850.62L411.797 850.469ZM400.605 848.066L399.939 848.812L399.948 848.82L400.605 848.066ZM396.445 841.211L397.398 840.906L396.749 838.878L395.603 840.673L396.445 841.211ZM392.695 845.664L391.997 844.948L391.988 844.957L392.695 845.664ZM386.543 849.648L386.147 848.73L386.142 848.732L386.543 849.648ZM385.371 841.68L385.732 842.612L385.745 842.607L385.371 841.68ZM391.816 837.871L392.457 838.639L392.458 838.638L391.816 837.871ZM395.566 832.598L396.523 832.89L396.566 832.747V832.598H395.566ZM395.566 816.25H396.566V813.836L394.859 815.543L395.566 816.25ZM391.055 819.648L391.599 820.488L391.602 820.485L391.055 819.648ZM381.973 823.398L382.246 824.36L382.249 824.36L381.973 823.398ZM371.367 827.617L370.829 826.774L370.823 826.778L371.367 827.617ZM370.43 840.859L369.75 841.593L369.759 841.601L370.43 840.859ZM377.051 850.289C372.585 850.289 369.034 849.524 366.335 848.066L365.384 849.825C368.466 851.491 372.376 852.289 377.051 852.289V850.289ZM366.349 848.073C363.644 846.554 361.681 844.596 360.415 842.207L358.648 843.144C360.115 845.912 362.372 848.133 365.37 849.817L366.349 848.073ZM360.423 842.223C359.167 839.748 358.539 837.11 358.539 834.297H356.539C356.539 837.421 357.239 840.369 358.64 843.128L360.423 842.223ZM358.539 834.297C358.539 831.298 359.12 828.864 360.223 826.943L358.488 825.947C357.169 828.246 356.539 831.046 356.539 834.297H358.539ZM360.22 826.948C361.334 825.034 363.468 823.212 366.779 821.537L365.877 819.752C362.391 821.515 359.877 823.56 358.491 825.942L360.22 826.948ZM366.783 821.535C370.137 819.82 375.085 818.005 381.665 816.097L381.108 814.176C374.485 816.097 369.394 817.953 365.873 819.754L366.783 821.535ZM381.67 816.096C385.119 815.077 387.899 814.171 390.001 813.377L389.295 811.506C387.258 812.275 384.53 813.165 381.103 814.178L381.67 816.096ZM390.001 813.377C392.172 812.558 393.861 811.474 394.951 810.065L393.369 808.841C392.585 809.855 391.265 810.762 389.295 811.506L390.001 813.377ZM394.951 810.065C396.075 808.613 396.566 806.624 396.566 804.238H394.566C394.566 806.384 394.12 807.872 393.369 808.841L394.951 810.065ZM396.566 804.238C396.566 802.449 396.275 800.797 395.675 799.297L393.818 800.039C394.311 801.273 394.566 802.668 394.566 804.238H396.566ZM395.684 799.32C395.066 797.658 393.777 796.395 391.971 795.492L391.076 797.281C392.551 798.019 393.41 798.944 393.809 800.016L395.684 799.32ZM391.979 795.497C390.162 794.566 387.507 794.156 384.141 794.156V796.156C387.415 796.156 389.681 796.567 391.068 797.277L391.979 795.497ZM384.141 794.156C379.97 794.156 376.765 794.583 374.649 795.533L375.468 797.358C377.181 796.589 380.03 796.156 384.141 796.156V794.156ZM374.649 795.533C372.59 796.457 371.109 797.748 370.435 799.481L372.299 800.206C372.719 799.127 373.699 798.152 375.468 797.358L374.649 795.533ZM370.43 799.496C369.875 800.99 369.605 802.633 369.605 804.414H371.605C371.605 802.835 371.844 801.432 372.305 800.192L370.43 799.496ZM369.605 804.414V807.168H371.605V804.414H369.605ZM370.605 806.168H360V808.168H370.605V806.168ZM361 807.168V804.355H359V807.168H361ZM361 804.355C361 798.465 362.953 794.344 366.718 791.762L365.587 790.113C361.149 793.156 359 797.98 359 804.355H361ZM366.718 791.762C370.578 789.116 376.453 787.719 384.492 787.719V785.719C376.282 785.719 369.93 787.134 365.587 790.113L366.718 791.762ZM384.492 787.719C392.584 787.719 397.938 789.613 400.897 793.107L402.423 791.815C398.898 787.653 392.807 785.719 384.492 785.719V787.719ZM400.901 793.112C403.988 796.714 405.582 801.579 405.582 807.812H407.582C407.582 801.234 405.894 795.864 402.419 791.81L400.901 793.112ZM405.582 807.812V834.297H407.582V807.812H405.582ZM405.582 834.297C405.582 835.972 405.686 837.389 405.908 838.531C406.125 839.649 406.477 840.617 407.06 841.284L408.565 839.966C408.328 839.695 408.064 839.14 407.871 838.149C407.683 837.181 407.582 835.903 407.582 834.297H405.582ZM407.075 841.301C407.678 841.958 408.53 842.383 409.518 842.646C410.51 842.91 411.707 843.031 413.086 843.031V841.031C411.809 841.031 410.799 840.918 410.033 840.713C409.263 840.508 408.806 840.229 408.55 839.949L407.075 841.301ZM412.097 841.88L410.808 850.318L412.785 850.62L414.074 842.182L412.097 841.88ZM411.797 849.469H409.57V851.469H411.797V849.469ZM409.57 849.469C405.516 849.469 402.826 848.677 401.263 847.313L399.948 848.82C402.057 850.659 405.343 851.469 409.57 851.469V849.469ZM401.272 847.321C399.598 845.825 398.294 843.708 397.398 840.906L395.493 841.516C396.471 844.573 397.941 847.026 399.939 848.812L401.272 847.321ZM395.603 840.673C394.757 841.997 393.561 843.422 391.997 844.948L393.394 846.38C395.033 844.781 396.337 843.238 397.288 841.749L395.603 840.673ZM391.988 844.957C390.535 846.411 388.598 847.674 386.147 848.73L386.939 850.567C389.566 849.435 391.731 848.043 393.402 846.371L391.988 844.957ZM386.142 848.732C383.809 849.753 380.793 850.289 377.051 850.289V852.289C380.965 852.289 384.277 851.731 386.944 850.565L386.142 848.732ZM378.398 844.086C380.767 844.086 383.214 843.587 385.732 842.612L385.01 840.747C382.685 841.647 380.483 842.086 378.398 842.086V844.086ZM385.745 842.607C388.257 841.594 390.496 840.273 392.457 838.639L391.176 837.103C389.387 838.594 387.329 839.812 384.997 840.752L385.745 842.607ZM392.458 838.638C394.484 836.943 395.867 835.031 396.523 832.89L394.61 832.305C394.093 833.993 392.977 835.596 391.175 837.104L392.458 838.638ZM396.566 832.598V816.25H394.566V832.598H396.566ZM394.859 815.543C394.077 816.325 392.647 817.411 390.507 818.812L391.602 820.485C393.759 819.073 395.337 817.894 396.274 816.957L394.859 815.543ZM390.511 818.809C388.52 820.1 385.599 821.317 381.697 822.437L382.249 824.36C386.237 823.214 389.371 821.932 391.599 820.488L390.511 818.809ZM381.699 822.437C376.866 823.812 373.219 825.25 370.829 826.774L371.905 828.46C374.046 827.094 377.47 825.72 382.246 824.36L381.699 822.437ZM370.823 826.778C368.297 828.418 367.027 830.851 367.027 833.945H369.027C369.027 831.492 369.984 829.707 371.912 828.456L370.823 826.778ZM367.027 833.945C367.027 837.226 367.869 839.85 369.75 841.593L371.109 840.126C369.787 838.9 369.027 836.914 369.027 833.945H367.027ZM369.759 841.601C371.672 843.332 374.631 844.086 378.398 844.086V842.086C374.822 842.086 372.469 841.356 371.101 840.118L369.759 841.601ZM429.375 787.891V786.891H428.375V787.891H429.375ZM440.391 787.891H441.391V786.891H440.391V787.891ZM440.391 793.926H439.391V796.598L441.145 794.582L440.391 793.926ZM447.598 788.77L448.006 789.682L448.016 789.678L447.598 788.77ZM471.094 789.238L470.616 790.117L470.622 790.12L470.629 790.124L471.094 789.238ZM477.891 795.859L476.999 796.312L477.001 796.317L477.891 795.859ZM480 850V851H481V850H480ZM468.984 850H467.984V851H468.984V850ZM440.391 850V851H441.391V850H440.391ZM429.375 850H428.375V851H429.375V850ZM429.375 788.891H440.391V786.891H429.375V788.891ZM439.391 787.891V793.926H441.391V787.891H439.391ZM441.145 794.582C442.871 792.599 445.148 790.961 448.006 789.682L447.189 787.857C444.109 789.235 441.582 791.034 439.636 793.269L441.145 794.582ZM448.016 789.678C450.814 788.389 454.39 787.719 458.789 787.719V785.719C454.203 785.719 450.319 786.415 447.179 787.861L448.016 789.678ZM458.789 787.719C463.81 787.719 467.728 788.545 470.616 790.117L471.572 788.36C468.287 786.572 464.002 785.719 458.789 785.719V787.719ZM470.629 790.124C473.596 791.681 475.699 793.748 476.999 796.312L478.783 795.407C477.27 792.424 474.842 790.076 471.559 788.353L470.629 790.124ZM477.001 796.317C478.33 798.9 479 801.75 479 804.883H481C481 801.453 480.264 798.287 478.78 795.402L477.001 796.317ZM479 804.883V850H481V804.883H479ZM480 849H468.984V851H480V849ZM469.984 850V804.238H467.984V850H469.984ZM469.984 804.238C469.984 800.841 468.622 798.215 465.874 796.53L464.829 798.235C466.925 799.52 467.984 801.464 467.984 804.238H469.984ZM465.874 796.53C463.249 794.921 459.927 794.156 455.977 794.156V796.156C459.682 796.156 462.61 796.875 464.829 798.235L465.874 796.53ZM455.977 794.156C450.498 794.156 446.274 795.181 443.51 797.427L444.771 798.979C447.007 797.162 450.674 796.156 455.977 796.156V794.156ZM443.51 797.427C440.795 799.633 439.391 802.429 439.391 805.762H441.391C441.391 803.079 442.486 800.836 444.771 798.979L443.51 797.427ZM439.391 805.762V850H441.391V805.762H439.391ZM440.391 849H429.375V851H440.391V849ZM430.375 850V787.891H428.375V850H430.375ZM533.086 850H532.086V851H533.086V850ZM533.086 765.273V764.273H532.086V765.273H533.086ZM585.527 769.082L585.051 769.961L585.057 769.964L585.527 769.082ZM595.664 779.277L594.763 779.711L594.766 779.718L595.664 779.277ZM590.859 842.793L591.533 843.532L591.533 843.532L590.859 842.793ZM544.922 841.211H543.922V842.211H544.922V841.211ZM576.562 839.922L576.822 840.888L576.83 840.886L576.562 839.922ZM584.18 781.211L583.355 781.776L583.36 781.783L583.364 781.79L584.18 781.211ZM576.504 775.645L576.202 776.598L576.209 776.6L576.216 776.602L576.504 775.645ZM544.922 774.121V773.121H543.922V774.121H544.922ZM534.086 850V765.273H532.086V850H534.086ZM533.086 766.273H566.719V764.273H533.086V766.273ZM566.719 766.273C574.477 766.273 580.563 767.53 585.051 769.961L586.004 768.203C581.117 765.556 574.664 764.273 566.719 764.273V766.273ZM585.057 769.964C589.579 772.376 592.795 775.628 594.763 779.711L596.565 778.843C594.392 774.333 590.85 770.788 585.998 768.2L585.057 769.964ZM594.766 779.718C596.8 783.861 597.828 788.551 597.828 793.809H599.828C599.828 788.285 598.746 783.287 596.562 778.837L594.766 779.718ZM597.828 793.809V821.758H599.828V793.809H597.828ZM597.828 821.758C597.828 830.739 595.236 837.449 590.186 842.054L591.533 843.532C597.108 838.449 599.828 831.136 599.828 821.758H597.828ZM590.186 842.054C585.171 846.623 577.452 849 566.836 849V851C577.705 851 586.001 848.572 591.533 843.532L590.186 842.054ZM566.836 849H533.086V851H566.836V849ZM544.922 842.211H565.664V840.211H544.922V842.211ZM565.664 842.211C569.795 842.211 573.518 841.774 576.822 840.888L576.303 838.956C573.201 839.788 569.658 840.211 565.664 840.211V842.211ZM576.83 840.886C580.281 839.929 583.037 838.043 585.051 835.231L583.425 834.066C581.69 836.489 579.328 838.118 576.295 838.958L576.83 840.886ZM585.051 835.231C587.102 832.368 588.051 828.216 588.051 822.93H586.051C586.051 828.034 585.125 831.694 583.425 834.066L585.051 835.231ZM588.051 822.93V793.105H586.051V822.93H588.051ZM588.051 793.105C588.051 787.775 587.081 783.569 584.995 780.632L583.364 781.79C585.107 784.243 586.051 787.967 586.051 793.105H588.051ZM585.004 780.645C582.998 777.719 580.248 775.728 576.792 774.687L576.216 776.602C579.245 777.514 581.612 779.234 583.355 781.776L585.004 780.645ZM576.806 774.691C573.488 773.639 569.77 773.121 565.664 773.121V775.121C569.605 775.121 573.113 775.619 576.202 776.598L576.806 774.691ZM565.664 773.121H544.922V775.121H565.664V773.121ZM543.922 774.121V841.211H545.922V774.121H543.922ZM621.562 787.891V786.891H620.562V787.891H621.562ZM632.578 787.891H633.578V786.891H632.578V787.891ZM632.578 850V851H633.578V850H632.578ZM621.562 850H620.562V851H621.562V850ZM621.387 761.816V760.816H620.387V761.816H621.387ZM632.754 761.816H633.754V760.816H632.754V761.816ZM632.754 774.004V775.004H633.754V774.004H632.754ZM621.387 774.004H620.387V775.004H621.387V774.004ZM621.562 788.891H632.578V786.891H621.562V788.891ZM631.578 787.891V850H633.578V787.891H631.578ZM632.578 849H621.562V851H632.578V849ZM622.562 850V787.891H620.562V850H622.562ZM621.387 762.816H632.754V760.816H621.387V762.816ZM631.754 761.816V774.004H633.754V761.816H631.754ZM632.754 773.004H621.387V775.004H632.754V773.004ZM622.387 774.004V761.816H620.387V774.004H622.387ZM659.238 871.562L658.28 871.277L658.013 872.173L658.889 872.499L659.238 871.562ZM661.699 863.301L662.048 862.364L661.046 861.991L660.741 863.015L661.699 863.301ZM668.672 864.883L668.529 865.872L668.672 864.883ZM689.004 862.129L688.315 861.404L688.309 861.41L689.004 862.129ZM692.578 843.203H693.578V840.902L691.896 842.472L692.578 843.203ZM687.832 845.84L688.137 846.792L688.148 846.789L687.832 845.84ZM681.855 847.246L681.989 848.237L681.998 848.236L682.008 848.234L681.855 847.246ZM658.887 842.559L658.227 843.31L658.23 843.313L658.887 842.559ZM658.77 792.344L658.07 791.629L658.066 791.633L658.77 792.344ZM683.145 787.656L682.874 788.619L682.879 788.62L683.145 787.656ZM692.578 792.871L691.721 793.386L693.578 796.481V792.871H692.578ZM692.578 787.891V786.891H691.578V787.891H692.578ZM703.594 787.891H704.594V786.891H703.594V787.891ZM701.191 861.543L700.269 861.157L700.266 861.165L701.191 861.543ZM693.223 870.566L692.719 869.703L692.708 869.709L693.223 870.566ZM692.578 834.531L693.211 835.305L693.578 835.005V834.531H692.578ZM689.062 797.441L688.511 798.276L688.519 798.281L688.527 798.286L689.062 797.441ZM667.91 797.793L667.347 796.967L667.341 796.971L667.91 797.793ZM668.203 837.168L667.746 838.057L667.756 838.062L668.203 837.168ZM677.988 872.906C673.834 872.906 670.281 872.731 667.323 872.386L667.091 874.372C670.149 874.73 673.783 874.906 677.988 874.906V872.906ZM667.323 872.386C664.377 872.041 661.802 871.451 659.588 870.626L658.889 872.499C661.284 873.392 664.021 874.013 667.091 874.372L667.323 872.386ZM660.197 871.848L662.658 863.586L660.741 863.015L658.28 871.277L660.197 871.848ZM661.35 864.238C663.126 864.899 665.53 865.438 668.529 865.872L668.815 863.893C665.876 863.468 663.632 862.953 662.048 862.364L661.35 864.238ZM668.529 865.872C671.543 866.309 674.521 866.527 677.461 866.527V864.527C674.62 864.527 671.738 864.316 668.815 863.893L668.529 865.872ZM677.461 866.527C682.914 866.527 687.08 865.38 689.699 862.848L688.309 861.41C686.24 863.409 682.711 864.527 677.461 864.527V866.527ZM689.693 862.854C692.343 860.334 693.578 856.587 693.578 851.816H691.578C691.578 856.264 690.43 859.393 688.315 861.404L689.693 862.854ZM693.578 851.816V843.203H691.578V851.816H693.578ZM691.896 842.472C690.856 843.442 689.412 844.259 687.516 844.891L688.148 846.789C690.236 846.093 691.956 845.151 693.26 843.934L691.896 842.472ZM687.527 844.887C685.624 845.496 683.683 845.953 681.703 846.258L682.008 848.234C684.09 847.914 686.134 847.433 688.137 846.792L687.527 844.887ZM681.722 846.255C679.718 846.525 678.027 846.656 676.641 846.656V848.656C678.145 848.656 679.93 848.514 681.989 848.237L681.722 846.255ZM676.641 846.656C668.829 846.656 663.192 844.979 659.543 841.804L658.23 843.313C662.394 846.935 668.593 848.656 676.641 848.656V846.656ZM659.547 841.807C655.948 838.645 654.086 834.029 654.086 827.793H652.086C652.086 834.448 654.091 839.675 658.227 843.31L659.547 841.807ZM654.086 827.793V807.344H652.086V827.793H654.086ZM654.086 807.344C654.086 801.311 655.906 796.584 659.473 793.055L658.066 791.633C654.055 795.603 652.086 800.876 652.086 807.344H654.086ZM659.469 793.058C663.034 789.566 668.685 787.719 676.641 787.719V785.719C668.424 785.719 662.161 787.622 658.07 791.629L659.469 793.058ZM676.641 787.719C678.65 787.719 680.727 788.016 682.874 788.619L683.415 786.693C681.109 786.046 678.85 785.719 676.641 785.719V787.719ZM682.879 788.62C685.084 789.229 687.003 789.984 688.642 790.878L689.6 789.122C687.802 788.141 685.736 787.334 683.41 786.692L682.879 788.62ZM688.642 790.878C690.303 791.784 691.271 792.635 691.721 793.386L693.436 792.357C692.714 791.154 691.377 790.091 689.6 789.122L688.642 790.878ZM693.578 792.871V787.891H691.578V792.871H693.578ZM692.578 788.891H703.594V786.891H692.578V788.891ZM702.594 787.891V848.535H704.594V787.891H702.594ZM702.594 848.535C702.594 853.268 701.811 857.47 700.269 861.157L702.114 861.929C703.774 857.96 704.594 853.49 704.594 848.535H702.594ZM700.266 861.165C698.791 864.778 696.289 867.62 692.719 869.703L693.727 871.43C697.657 869.138 700.467 865.964 702.117 861.921L700.266 861.165ZM692.708 869.709C689.211 871.807 684.335 872.906 677.988 872.906V874.906C684.532 874.906 689.813 873.779 693.737 871.424L692.708 869.709ZM678.34 840.219C682.518 840.219 685.89 839.606 688.362 838.284L687.419 836.52C685.36 837.621 682.365 838.219 678.34 838.219V840.219ZM688.362 838.284C690.63 837.072 692.269 836.076 693.211 835.305L691.945 833.757C691.168 834.393 689.682 835.311 687.419 836.52L688.362 838.284ZM693.578 834.531V803.711H691.578V834.531H693.578ZM693.578 803.711C693.578 800.661 692.221 798.258 689.598 796.597L688.527 798.286C690.592 799.594 691.578 801.37 691.578 803.711H693.578ZM689.614 796.607C687.063 794.921 683.228 794.156 678.281 794.156V796.156C683.1 796.156 686.453 796.915 688.511 798.276L689.614 796.607ZM678.281 794.156C673.82 794.156 670.144 795.059 667.347 796.967L668.473 798.619C670.832 797.011 674.07 796.156 678.281 796.156V794.156ZM667.341 796.971C664.467 798.961 663.102 802.104 663.102 806.172H665.102C665.102 802.583 666.276 800.141 668.479 798.615L667.341 796.971ZM663.102 806.172V829.492H665.102V806.172H663.102ZM663.102 829.492C663.102 833.484 664.603 836.441 667.746 838.057L668.66 836.279C666.335 835.083 665.102 832.922 665.102 829.492H663.102ZM667.756 838.062C670.666 839.517 674.208 840.219 678.34 840.219V838.219C674.425 838.219 671.209 837.553 668.65 836.274L667.756 838.062ZM725.742 787.891V786.891H724.742V787.891H725.742ZM736.758 787.891H737.758V786.891H736.758V787.891ZM736.758 850V851H737.758V850H736.758ZM725.742 850H724.742V851H725.742V850ZM725.566 761.816V760.816H724.566V761.816H725.566ZM736.934 761.816H737.934V760.816H736.934V761.816ZM736.934 774.004V775.004H737.934V774.004H736.934ZM725.566 774.004H724.566V775.004H725.566V774.004ZM725.742 788.891H736.758V786.891H725.742V788.891ZM735.758 787.891V850H737.758V787.891H735.758ZM736.758 849H725.742V851H736.758V849ZM726.742 850V787.891H724.742V850H726.742ZM725.566 762.816H736.934V760.816H725.566V762.816ZM735.934 761.816V774.004H737.934V761.816H735.934ZM736.934 773.004H725.566V775.004H736.934V773.004ZM726.566 774.004V761.816H724.566V774.004H726.566ZM763.652 796.211H764.652V795.211H763.652V796.211ZM753.281 796.211H752.281V797.211H753.281V796.211ZM753.281 787.891V786.891H752.281V787.891H753.281ZM764.062 787.891V788.891H764.995L765.06 787.961L764.062 787.891ZM765.41 768.672V767.672H764.478L764.413 768.602L765.41 768.672ZM774.668 768.672H775.668V767.672H774.668V768.672ZM774.668 787.891H773.668V788.891H774.668V787.891ZM790.254 787.891H791.254V786.891H790.254V787.891ZM790.254 796.211V797.211H791.254V796.211H790.254ZM774.668 796.211V795.211H773.668V796.211H774.668ZM791.016 841.211L792.008 841.337L792.15 840.211H791.016V841.211ZM789.844 850.469V851.469H790.725L790.836 850.594L789.844 850.469ZM764.652 832.246V796.211H762.652V832.246H764.652ZM763.652 795.211H753.281V797.211H763.652V795.211ZM754.281 796.211V787.891H752.281V796.211H754.281ZM753.281 788.891H764.062V786.891H753.281V788.891ZM765.06 787.961L766.408 768.742L764.413 768.602L763.065 787.821L765.06 787.961ZM765.41 769.672H774.668V767.672H765.41V769.672ZM773.668 768.672V787.891H775.668V768.672H773.668ZM774.668 788.891H790.254V786.891H774.668V788.891ZM789.254 787.891V796.211H791.254V787.891H789.254ZM790.254 795.211H774.668V797.211H790.254V795.211ZM773.668 796.211V831.543H775.668V796.211H773.668ZM773.668 831.543C773.668 835.804 774.934 838.935 777.865 840.353L778.736 838.553C776.824 837.627 775.668 835.485 775.668 831.543H773.668ZM777.865 840.353C780.499 841.628 784.516 842.211 789.785 842.211V840.211C784.585 840.211 780.947 839.622 778.736 838.553L777.865 840.353ZM789.785 842.211H791.016V840.211H789.785V842.211ZM790.024 841.085L788.852 850.343L790.836 850.594L792.008 841.337L790.024 841.085ZM789.844 849.469H788.203V851.469H789.844V849.469ZM788.203 849.469C779.79 849.469 773.824 848.143 770.129 845.655L769.012 847.314C773.207 850.138 779.664 851.469 788.203 851.469V849.469ZM770.129 845.655C766.568 843.257 764.652 838.906 764.652 832.246H762.652C762.652 839.258 764.682 844.399 769.012 847.314L770.129 845.655ZM813.398 848.945L812.909 849.817L812.916 849.821L812.923 849.825L813.398 848.945ZM807.07 842.676L806.179 843.128L806.183 843.136L806.187 843.144L807.07 842.676ZM806.895 826.445L806.03 825.942L806.027 825.947L806.895 826.445ZM813.867 820.645L814.319 821.537L814.322 821.535L813.867 820.645ZM828.926 815.137L829.204 816.097L829.209 816.096L828.926 815.137ZM842.285 799.668L841.348 800.016L841.352 800.028L841.357 800.039L842.285 799.668ZM839.062 796.387L838.607 797.277L838.615 797.281L839.062 796.387ZM818.906 799.844L817.974 799.481L817.971 799.488L817.969 799.496L818.906 799.844ZM818.145 807.168V808.168H819.145V807.168H818.145ZM807.539 807.168H806.539V808.168H807.539V807.168ZM849.199 792.461L848.436 793.107L848.44 793.112L849.199 792.461ZM855.352 840.625L854.599 841.284L854.607 841.292L854.614 841.301L855.352 840.625ZM860.625 842.031L861.614 842.182L861.789 841.031H860.625V842.031ZM859.336 850.469V851.469H860.195L860.324 850.62L859.336 850.469ZM848.145 848.066L847.478 848.812L847.487 848.82L848.145 848.066ZM843.984 841.211L844.937 840.906L844.288 838.878L843.142 840.673L843.984 841.211ZM840.234 845.664L839.536 844.948L839.527 844.957L840.234 845.664ZM834.082 849.648L833.686 848.73L833.681 848.732L834.082 849.648ZM832.91 841.68L833.271 842.612L833.284 842.607L832.91 841.68ZM839.355 837.871L839.996 838.639L839.997 838.638L839.355 837.871ZM843.105 832.598L844.062 832.89L844.105 832.747V832.598H843.105ZM843.105 816.25H844.105V813.836L842.398 815.543L843.105 816.25ZM838.594 819.648L839.138 820.488L839.141 820.485L838.594 819.648ZM829.512 823.398L829.785 824.36L829.788 824.36L829.512 823.398ZM818.906 827.617L818.368 826.774L818.362 826.778L818.906 827.617ZM817.969 840.859L817.289 841.593L817.298 841.601L817.969 840.859ZM824.59 850.289C820.124 850.289 816.573 849.524 813.874 848.066L812.923 849.825C816.006 851.491 819.915 852.289 824.59 852.289V850.289ZM813.888 848.073C811.183 846.554 809.221 844.596 807.954 842.207L806.187 843.144C807.654 845.912 809.911 848.133 812.909 849.817L813.888 848.073ZM807.962 842.223C806.706 839.748 806.078 837.11 806.078 834.297H804.078C804.078 837.421 804.778 840.369 806.179 843.128L807.962 842.223ZM806.078 834.297C806.078 831.298 806.659 828.864 807.762 826.943L806.027 825.947C804.708 828.246 804.078 831.046 804.078 834.297H806.078ZM807.759 826.948C808.873 825.034 811.007 823.212 814.318 821.537L813.416 819.752C809.93 821.515 807.416 823.56 806.03 825.942L807.759 826.948ZM814.322 821.535C817.676 819.82 822.624 818.005 829.204 816.097L828.647 814.176C822.024 816.097 816.933 817.953 813.412 819.754L814.322 821.535ZM829.209 816.096C832.658 815.077 835.438 814.171 837.541 813.377L836.834 811.506C834.797 812.275 832.069 813.165 828.642 814.178L829.209 816.096ZM837.541 813.377C839.711 812.558 841.4 811.474 842.49 810.065L840.908 808.841C840.124 809.855 838.804 810.762 836.834 811.506L837.541 813.377ZM842.49 810.065C843.615 808.613 844.105 806.624 844.105 804.238H842.105C842.105 806.384 841.659 807.872 840.908 808.841L842.49 810.065ZM844.105 804.238C844.105 802.449 843.814 800.797 843.214 799.297L841.357 800.039C841.85 801.273 842.105 802.668 842.105 804.238H844.105ZM843.223 799.32C842.605 797.658 841.316 796.395 839.51 795.492L838.615 797.281C840.09 798.019 840.949 798.944 841.348 800.016L843.223 799.32ZM839.518 795.497C837.701 794.566 835.046 794.156 831.68 794.156V796.156C834.954 796.156 837.22 796.567 838.607 797.277L839.518 795.497ZM831.68 794.156C827.509 794.156 824.304 794.583 822.188 795.533L823.007 797.358C824.72 796.589 827.569 796.156 831.68 796.156V794.156ZM822.188 795.533C820.129 796.457 818.648 797.748 817.974 799.481L819.838 800.206C820.258 799.127 821.238 798.152 823.007 797.358L822.188 795.533ZM817.969 799.496C817.414 800.99 817.145 802.633 817.145 804.414H819.145C819.145 802.835 819.383 801.432 819.844 800.192L817.969 799.496ZM817.145 804.414V807.168H819.145V804.414H817.145ZM818.145 806.168H807.539V808.168H818.145V806.168ZM808.539 807.168V804.355H806.539V807.168H808.539ZM808.539 804.355C808.539 798.465 810.492 794.344 814.257 791.762L813.126 790.113C808.688 793.156 806.539 797.98 806.539 804.355H808.539ZM814.257 791.762C818.117 789.116 823.992 787.719 832.031 787.719V785.719C823.821 785.719 817.469 787.134 813.126 790.113L814.257 791.762ZM832.031 787.719C840.123 787.719 845.477 789.613 848.436 793.107L849.962 791.815C846.437 787.653 840.346 785.719 832.031 785.719V787.719ZM848.44 793.112C851.528 796.714 853.121 801.579 853.121 807.812H855.121C855.121 801.234 853.433 795.864 849.958 791.81L848.44 793.112ZM853.121 807.812V834.297H855.121V807.812H853.121ZM853.121 834.297C853.121 835.972 853.225 837.389 853.447 838.531C853.665 839.649 854.016 840.617 854.599 841.284L856.104 839.966C855.867 839.695 855.603 839.14 855.41 838.149C855.222 837.181 855.121 835.903 855.121 834.297H853.121ZM854.614 841.301C855.217 841.958 856.069 842.383 857.057 842.646C858.049 842.91 859.246 843.031 860.625 843.031V841.031C859.348 841.031 858.338 840.918 857.572 840.713C856.802 840.508 856.345 840.229 856.089 839.949L854.614 841.301ZM859.636 841.88L858.347 850.318L860.324 850.62L861.614 842.182L859.636 841.88ZM859.336 849.469H857.109V851.469H859.336V849.469ZM857.109 849.469C853.055 849.469 850.365 848.677 848.802 847.313L847.487 848.82C849.596 850.659 852.883 851.469 857.109 851.469V849.469ZM848.811 847.321C847.137 845.825 845.833 843.708 844.937 840.906L843.032 841.516C844.01 844.573 845.48 847.026 847.478 848.812L848.811 847.321ZM843.142 840.673C842.296 841.997 841.1 843.422 839.536 844.948L840.933 846.38C842.572 844.781 843.876 843.238 844.827 841.749L843.142 840.673ZM839.527 844.957C838.074 846.411 836.137 847.674 833.686 848.73L834.478 850.567C837.105 849.435 839.27 848.043 840.941 846.371L839.527 844.957ZM833.681 848.732C831.348 849.753 828.332 850.289 824.59 850.289V852.289C828.504 852.289 831.816 851.731 834.483 850.565L833.681 848.732ZM825.938 844.086C828.306 844.086 830.753 843.587 833.271 842.612L832.549 840.747C830.224 841.647 828.022 842.086 825.938 842.086V844.086ZM833.284 842.607C835.796 841.594 838.035 840.273 839.996 838.639L838.715 837.103C836.926 838.594 834.868 839.812 832.536 840.752L833.284 842.607ZM839.997 838.638C842.023 836.943 843.407 835.031 844.062 832.89L842.149 832.305C841.633 833.993 840.516 835.596 838.714 837.104L839.997 838.638ZM844.105 832.598V816.25H842.105V832.598H844.105ZM842.398 815.543C841.616 816.325 840.186 817.411 838.046 818.812L839.141 820.485C841.299 819.073 842.876 817.894 843.813 816.957L842.398 815.543ZM838.05 818.809C836.059 820.1 833.138 821.317 829.236 822.437L829.788 824.36C833.776 823.214 836.91 821.932 839.138 820.488L838.05 818.809ZM829.238 822.437C824.405 823.812 820.758 825.25 818.368 826.774L819.444 828.46C821.585 827.094 825.009 825.72 829.785 824.36L829.238 822.437ZM818.362 826.778C815.836 828.418 814.566 830.851 814.566 833.945H816.566C816.566 831.492 817.523 829.707 819.451 828.456L818.362 826.778ZM814.566 833.945C814.566 837.226 815.408 839.85 817.289 841.593L818.649 840.126C817.326 838.9 816.566 836.914 816.566 833.945H814.566ZM817.298 841.601C819.211 843.332 822.17 844.086 825.938 844.086V842.086C822.361 842.086 820.008 841.356 818.64 840.118L817.298 841.601ZM877.148 761.816V760.816H876.148V761.816H877.148ZM888.164 761.816H889.164V760.816H888.164V761.816ZM889.102 836.816L888.159 837.151L888.162 837.158L889.102 836.816ZM892.5 840.332L892.144 841.267L892.154 841.27L892.164 841.274L892.5 840.332ZM901.523 841.211L902.514 841.349L902.672 840.211H901.523V841.211ZM900.234 850.469V851.469H901.105L901.225 850.607L900.234 850.469ZM885.82 848.887L885.482 849.828L885.486 849.829L885.82 848.887ZM879.258 842.676L878.348 843.09L878.352 843.1L879.258 842.676ZM878.148 829.023V761.816H876.148V829.023H878.148ZM877.148 762.816H888.164V760.816H877.148V762.816ZM887.164 761.816V829.141H889.164V761.816H887.164ZM887.164 829.141C887.164 832.538 887.477 835.232 888.159 837.151L890.044 836.481C889.476 834.885 889.164 832.462 889.164 829.141H887.164ZM888.162 837.158C888.881 839.137 890.219 840.533 892.144 841.267L892.856 839.398C891.499 838.881 890.572 837.933 890.041 836.475L888.162 837.158ZM892.164 841.274C893.965 841.917 896.464 842.211 899.59 842.211V840.211C896.544 840.211 894.316 839.919 892.836 839.39L892.164 841.274ZM899.59 842.211H901.523V840.211H899.59V842.211ZM900.533 841.073L899.244 850.331L901.225 850.607L902.514 841.349L900.533 841.073ZM900.234 849.469H897.07V851.469H900.234V849.469ZM897.07 849.469C892.607 849.469 888.98 848.948 886.155 847.944L885.486 849.829C888.598 850.935 892.471 851.469 897.07 851.469V849.469ZM886.159 847.946C883.504 846.99 881.508 845.122 880.163 842.252L878.352 843.1C879.899 846.402 882.277 848.674 885.482 849.828L886.159 847.946ZM880.168 842.261C878.85 839.37 878.148 834.99 878.148 829.023H876.148C876.148 835.088 876.853 839.81 878.348 843.09L880.168 842.261Z" fill="#1F8767"/>
<path d="M461.303 225H460.303V226V294.962V295.987L461.328 295.962C564.572 293.375 621.311 368.334 623.892 444.793C625.182 483.027 612.922 521.597 586.175 551.006C559.44 580.402 518.164 600.72 461.274 602.34L460.303 602.367V603.339V671V672H461.303C538.811 672 597.344 644.087 636.576 602.152C675.794 560.232 695.672 504.357 695.996 448.506C696.321 392.654 677.092 336.774 638.032 294.85C598.958 252.91 540.099 225 461.303 225Z" fill="#D8E9E3" stroke="white" stroke-width="2"/>
<path d="M385 671V672H386H671.63H672.63V671V652.239C672.63 624.073 649.797 601.239 621.63 601.239H464.237V226V225H463.237H436C407.833 225 385 247.833 385 276V671Z" fill="#1F8767" stroke="white" stroke-width="2"/>
</svg>
